External Loads File
version=1
nRows=39
nColumns=13
Range=5.000000e-03-10 seconds
endheader
time 	forceRightX 	forceRightY 	forceRightZ 	pointRightX 	pointRightY 	pointRightZ 	forceLeftX 	forceLeftY 	forceLeftZ 	pointLeftX 	pointLeftY 	pointLeftZ 		
0.005000 36.441494 316.375825 -0.000000 0.215496 0.145959 -0.119013 71.863341 86.563718 -0.000000 0.174209 0.480986 -0.362074
0.010000 36.782857 315.758985 -0.000000 0.215437 0.145934 -0.119006 71.801167 87.403012 -0.000000 0.174259 0.481029 -0.362066
0.015000 37.086289 315.050873 -0.000000 0.215393 0.145930 -0.119090 71.740003 88.156278 -0.000000 0.174308 0.481057 -0.362054
0.020000 36.809534 314.285985 -0.000000 0.215407 0.145239 -0.119007 71.536358 88.902815 -0.000000 0.174253 0.476530 -0.362005
0.025000 38.017839 313.196225 -0.000000 0.215016 0.145436 -0.118451 71.779905 89.132128 -0.000000 0.175241 0.474864 -0.357812
0.030000 37.648442 312.140665 -0.000000 0.215370 0.145446 -0.118869 71.603537 89.524877 -0.000000 0.174285 0.480873 -0.362043
0.035000 37.640057 310.916323 -0.000000 0.215540 0.145445 -0.118981 71.557876 89.642091 -0.000000 0.174179 0.481599 -0.361917
0.040000 37.853336 309.606114 -0.000000 0.215600 0.145495 -0.118996 71.602649 89.557354 -0.000000 0.174288 0.481594 -0.362016
0.045000 37.859237 308.337816 -0.000000 0.215682 0.145496 -0.119013 71.610970 89.438040 -0.000000 0.174182 0.481566 -0.362014
0.050000 37.954024 307.122212 -0.000000 0.215767 0.145518 -0.119004 71.665464 89.259068 -0.000000 0.174150 0.481563 -0.362329
0.055000 37.977266 305.987073 -0.000000 0.215879 0.145892 -0.118993 71.717828 89.049833 -0.000000 0.174078 0.481521 -0.362334
0.060000 37.990573 304.921616 -0.000000 0.216020 0.145946 -0.118970 71.786217 88.772493 -0.000000 0.173942 0.481490 -0.362352
0.065000 37.876540 303.963767 -0.000000 0.216171 0.145657 -0.118966 71.835962 88.481706 -0.000000 0.173625 0.481161 -0.362612
0.070000 37.817579 303.158551 -0.000000 0.216345 0.145565 -0.118976 71.913847 88.236875 -0.000000 0.173369 0.481077 -0.362327
0.075000 37.886804 302.594468 -0.000000 0.216534 0.145657 -0.118944 72.031242 88.136836 -0.000000 0.173293 0.480983 -0.362137
0.080000 37.842257 302.389936 -0.000000 0.216702 0.145748 -0.118961 72.115958 88.273713 -0.000000 0.173089 0.480912 -0.362122
0.085000 37.738366 302.578289 -0.000000 0.216896 0.145785 -0.118985 72.196882 88.561745 -0.000000 0.172892 0.480851 -0.362155
0.090000 37.571863 303.133380 -0.000000 0.217086 0.145841 -0.119024 72.291423 88.889776 -0.000000 0.172700 0.480777 -0.362077
0.095000 37.323392 303.970437 -0.000000 0.217298 0.145885 -0.119033 72.400459 89.190299 -0.000000 0.172510 0.480697 -0.362096
0.100000 36.937294 304.973686 -0.000000 0.217505 0.146536 -0.119058 72.496851 89.458086 -0.000000 0.172300 0.480622 -0.362121
0.105000 36.618579 305.987800 -0.000000 0.217698 0.146533 -0.119070 72.622421 89.648570 -0.000000 0.172115 0.480559 -0.362085
0.110000 36.221391 306.913769 -0.000000 0.217924 0.146577 -0.119070 72.718869 89.814892 -0.000000 0.171898 0.480526 -0.362084
0.115000 35.839069 307.649154 -0.000000 0.218123 0.146618 -0.119060 72.803444 89.979537 -0.000000 0.171673 0.480460 -0.362046
0.120000 35.370693 308.135815 -0.000000 0.218368 0.146687 -0.119060 72.843138 90.206530 -0.000000 0.171450 0.479845 -0.362031
0.125000 34.911696 308.310528 -0.000000 0.218603 0.146764 -0.119072 72.871105 90.450860 -0.000000 0.171046 0.480296 -0.361790
0.130000 34.499706 308.141270 -0.000000 0.218864 0.146825 -0.119066 72.907972 90.626376 -0.000000 0.170790 0.479694 -0.361804
0.135000 34.319439 307.605487 -0.000000 0.219110 0.146889 -0.119058 73.010128 90.642033 -0.000000 0.170547 0.480192 -0.361817
0.140000 34.130044 306.747015 -0.000000 0.219363 0.146944 -0.119080 73.095482 90.595989 -0.000000 0.170281 0.480120 -0.361783
0.145000 33.949660 305.594554 -0.000000 0.219646 0.146758 -0.119092 73.155552 90.577010 -0.000000 0.169992 0.479469 -0.361766
0.150000 33.969738 304.166258 -0.000000 0.219948 0.146629 -0.119086 73.246869 90.597047 -0.000000 0.169682 0.479951 -0.361756
0.155000 33.963815 302.533480 -0.000000 0.220273 0.146713 -0.119071 73.317399 90.686937 -0.000000 0.169369 0.479869 -0.361735
0.160000 33.947010 300.766716 -0.000000 0.220594 0.147270 -0.119065 73.391442 90.768926 -0.000000 0.169037 0.479766 -0.361703
0.165000 33.894607 298.987288 -0.000000 0.220961 0.147333 -0.119061 73.480877 90.779529 -0.000000 0.168699 0.479107 -0.361693
0.170000 33.949920 297.322897 -0.000000 0.221330 0.147441 -0.119063 73.647339 90.643297 -0.000000 0.168362 0.479515 -0.361724
0.175000 33.929680 295.914857 -0.000000 0.221701 0.147287 -0.119052 73.843610 90.402067 -0.000000 0.168048 0.479389 -0.361732
0.180000 33.668341 294.853306 -0.000000 0.222052 0.147694 -0.119067 74.008390 90.149782 -0.000000 0.167596 0.479254 -0.361946
0.185000 33.381695 294.143163 -0.000000 0.222401 0.147821 -0.119101 74.183155 89.934466 -0.000000 0.167245 0.478526 -0.362009
0.190000 33.254474 293.771351 -0.000000 0.222763 0.147630 -0.119096 74.405059 89.794642 -0.000000 0.166929 0.478942 -0.361977
0.195000 33.039542 293.764896 -0.000000 0.223122 0.147501 -0.119075 74.596851 89.798935 -0.000000 0.166645 0.478809 -0.362063
